<svg xmlns="http://www.w3.org/2000/svg" version="1.1" xmlns:xlink="http://www.w3.org/1999/xlink" xmlns:svgjs="http://svgjs.dev/svgjs" width="1500" height="1500" viewBox="0 0 1500 1500"><rect width="1500" height="1500" fill="#000000"></rect><g transform="matrix(0.6666666666666666,0,0,0.6666666666666666,250,250)"><svg viewBox="0 0 280 280" data-background-color="#c8c8c8" preserveAspectRatio="xMidYMid meet" height="1500" width="1500" xmlns="http://www.w3.org/2000/svg" xmlns:xlink="http://www.w3.org/1999/xlink"><g id="tight-bounds" transform="matrix(1,0,0,1,0,0)"><svg viewBox="0 0 280 280" height="280" width="280"><g><svg viewBox="0 0 280 280" height="280" width="280"><g transform="matrix(1,0,0,1,60.80404050710668,103.49011329155329)"><svg viewBox="0 0 158.39191898578665 73.01977341689344" height="73.01977341689344" width="158.39191898578665"><g><svg viewBox="0 0 158.39191898578665 73.01977341689344" height="73.01977341689344" width="158.39191898578665"><g><svg viewBox="0 0 158.39191898578665 73.01977341689344" height="73.01977341689344" width="158.39191898578665"><g id="textblocktransform"><svg viewBox="0 0 158.39191898578665 73.01977341689344" height="73.01977341689344" width="158.39191898578665" id="textblock"><g><rect width="158.39191898578665" height="58.08091245404755" fill="none" stroke-width="5.742585729733986" stroke="#ffffff" data-fill-palette-color="none" data-stroke-palette-color="tertiary"></rect><rect width="158.39191898578665" height="15.938860962845899" y="58.08091245404755" fill="#ffffff" data-fill-palette-color="tertiary"></rect></g><g><svg viewBox="0 0 158.39191898578665 57.08091245404755" height="57.08091245404755" width="158.39191898578665"><g transform="matrix(1,0,0,1,15.032946936476403,15.032946936476401)"><svg width="128.32602511283383" viewBox="7.08 -34.69 167.1 35.18" height="27.015018581094747" data-palette-color="#000000"><path d="M7.08 0L7.08-34.69 18.53-34.69Q19.34-34.69 19.86-34.68 20.39-34.67 21.39-34.58 22.39-34.5 23.1-34.34 23.8-34.18 24.77-33.85 25.73-33.52 26.42-33.08 27.1-32.64 27.84-31.92 28.59-31.2 29.04-30.32 29.49-29.44 29.79-28.2 30.08-26.95 30.08-25.46L30.08-25.46Q30.08-23.32 29.59-21.61 29.1-19.9 28.33-18.75 27.56-17.6 26.34-16.77 25.12-15.94 23.93-15.49 22.73-15.04 21.11-14.78 19.48-14.53 18.2-14.45 16.92-14.38 15.23-14.38L15.23-14.38Q13.57-14.38 11.23-14.55L11.23-14.55 11.23 0 7.08 0ZM11.23-31.03L11.23-18.21Q13.57-18.02 15.67-18.02L15.67-18.02Q16.87-18.02 17.68-18.04 18.48-18.07 19.65-18.21 20.83-18.36 21.61-18.62 22.39-18.87 23.27-19.38 24.15-19.9 24.67-20.59 25.2-21.29 25.54-22.35 25.88-23.41 25.88-24.78L25.88-24.78Q25.88-26.2 25.51-27.28 25.15-28.37 24.45-29.03 23.75-29.69 22.99-30.11 22.22-30.54 21.13-30.73 20.04-30.91 19.23-30.97 18.41-31.03 17.29-31.03L17.29-31.03 11.23-31.03ZM62.47-19.73L62.47-34.69 66.62-34.69 66.62 0 62.47 0 62.47-16.06 43.92-16.06 43.92 0 39.77 0 39.77-34.69 43.92-34.69 43.92-19.73 62.47-19.73ZM103.39-31.03L96.65-31.03 96.65-3.66 101.7-3.66Q102.8-3.66 103.52-3.69 104.24-3.71 105.47-3.83 106.71-3.96 107.6-4.2 108.49-4.44 109.62-4.91 110.76-5.37 111.64-6.03 112.52-6.69 113.4-7.71 114.27-8.74 114.93-10.03L114.93-10.03Q116.55-13.13 116.55-17.58L116.55-17.58Q116.55-20.65 115.65-23.13 114.76-25.61 113.29-27.16 111.81-28.71 110.14-29.61 108.46-30.52 106.63-30.83L106.63-30.83Q105.56-31.03 103.39-31.03L103.39-31.03ZM92.5-34.69L103.24-34.69Q106.61-34.69 109.37-34.02 112.13-33.35 113.99-32.13 115.86-30.91 117.2-29.37 118.55-27.83 119.29-25.94 120.04-24.05 120.38-22.22 120.72-20.39 120.72-18.41L120.72-18.41Q120.72-16.14 120.38-14.04 120.04-11.94 119.19-9.77 118.35-7.59 117.05-5.87 115.74-4.15 113.66-2.77 111.59-1.39 108.95-0.73L108.95-0.73Q107.59-0.39 105.9-0.22 104.22-0.05 103.12-0.02 102.02 0 100.02 0L100.02 0 92.5 0 92.5-34.69ZM139.39-24.58L139.39-24.58Q141.15-24.58 142.56-24.16 143.96-23.73 144.89-23.07 145.82-22.41 146.49-21.35 147.16-20.29 147.51-19.3 147.87-18.31 148.06-16.92 148.26-15.53 148.31-14.5 148.35-13.48 148.35-12.08L148.35-12.08 148.35-10.18 131.78-10.18Q131.78-8.86 132.38-7.56 132.97-6.25 134.06-5.16 135.15-4.08 136.92-3.39 138.69-2.71 140.83-2.71L140.83-2.71Q143.37-2.71 146.33-3.59L146.33-3.59 147.04-0.85Q143.11 0.49 139.32 0.49L139.32 0.49Q136.66 0.49 134.6-0.22 132.53-0.93 131.28-2.06 130.02-3.2 129.21-4.79 128.41-6.37 128.1-7.95 127.8-9.52 127.8-11.28L127.8-11.28Q127.8-13.99 128.46-16.24 129.12-18.48 130.24-20.01 131.36-21.53 132.86-22.58 134.37-23.63 136.01-24.11 137.66-24.58 139.39-24.58ZM138.54-21.12L138.54-21.12Q136.39-21.12 134.84-19.93 133.29-18.75 132.58-16.99 131.87-15.23 131.87-13.21L131.87-13.21 144.47-13.21Q144.47-21.12 138.54-21.12ZM170.03-24.12L174.18-24.12 165.71 0 161.56 0 153.11-24.12 157.51-24.12 163.76-3.98 170.03-24.12Z" opacity="1" transform="matrix(1,0,0,1,0,0)" fill="#ffffff" class="wordmark-text-0" data-fill-palette-color="primary" id="text-0"></path></svg></g></svg></g><g transform="matrix(1,0,0,1,38.34740941815835,57.08091245404755)"><svg viewBox="0 0 81.69710014946995 15.938860962845899" height="15.938860962845899" width="81.69710014946995"><g transform="matrix(1,0,0,1,20.000000000000004,3.2)"><svg width="41.69710014946994" viewBox="3 -39.65 176.58 40.4" height="9.538860962845899" data-palette-color="#c8c8c8"><path d="M10.9-34.55Q17.15-34.55 20.43-31.78 23.7-29 23.7-23.6L23.7-23.6Q23.7-17.85 20.48-15 17.25-12.15 11.35-12.15L11.35-12.15 9.35-12.15 9.35 0 3 0 3-34.55 10.9-34.55ZM11-16.9Q14.25-16.9 15.7-18.4 17.15-19.9 17.15-23.55L17.15-23.55Q17.15-26.85 15.7-28.35 14.25-29.85 11.05-29.85L11.05-29.85 9.35-29.85 9.35-16.9 11-16.9ZM36.7-27.15Q41.7-27.15 44.47-23.65 47.25-20.15 47.25-13.25L47.25-13.25Q47.25-6.65 44.45-2.95 41.65 0.75 36.7 0.75L36.7 0.75Q31.75 0.75 28.95-2.88 26.15-6.5 26.15-13.25L26.15-13.25Q26.15-19.95 28.95-23.55 31.75-27.15 36.7-27.15L36.7-27.15ZM36.7-22.5Q34.55-22.5 33.55-20.38 32.55-18.25 32.55-13.25L32.55-13.25Q32.55-8.2 33.55-6.08 34.55-3.95 36.7-3.95L36.7-3.95Q38.85-3.95 39.85-6.08 40.85-8.2 40.85-13.25L40.85-13.25Q40.85-18.3 39.85-20.4 38.85-22.5 36.7-22.5L36.7-22.5ZM63.45-27.1Q64.6-27.1 65.5-26.75L65.5-26.75 64.5-20.85Q63.5-21.1 62.65-21.1L62.65-21.1Q60.75-21.1 59.65-19.45 58.55-17.8 57.95-14.55L57.95-14.55 57.95 0 51.8 0 51.8-26.45 57.15-26.45 57.6-21.85Q59.45-27.1 63.45-27.1L63.45-27.1ZM79.49-5L81.64-1.2Q79.19 0.75 75.89 0.75L75.89 0.75Q72.44 0.75 70.64-1.23 68.84-3.2 68.84-6.6L68.84-6.6 68.84-22 65.74-22 65.74-26.45 68.84-26.45 68.84-32.3 74.99-33.05 74.99-26.45 79.99-26.45 79.39-22 74.99-22 74.99-6.6Q74.99-4.2 77.04-4.2L77.04-4.2Q77.69-4.2 78.19-4.38 78.69-4.55 79.49-5L79.49-5ZM84.19-26.45L90.34-26.45 90.34 0 84.19 0 84.19-26.45ZM87.24-39.65Q88.89-39.65 89.92-38.6 90.94-37.55 90.94-35.9L90.94-35.9Q90.94-34.3 89.92-33.25 88.89-32.2 87.24-32.2L87.24-32.2Q85.59-32.2 84.56-33.25 83.54-34.3 83.54-35.9L83.54-35.9Q83.54-37.55 84.56-38.6 85.59-39.65 87.24-39.65L87.24-39.65ZM105.74-33.05Q104.34-33.05 103.66-32.3 102.99-31.55 102.99-30L102.99-30 102.99-26.45 108.04-26.45 107.34-22 102.99-22 102.99 0 96.84 0 96.84-22 93.54-22 93.54-26.45 96.84-26.45 96.84-29.8Q96.84-33.4 98.94-35.55 101.04-37.7 104.94-37.7L104.94-37.7Q107.99-37.7 110.84-36.2L110.84-36.2 109.14-32.2Q107.39-33.05 105.74-33.05L105.74-33.05ZM120.23-27.15Q125.23-27.15 128.01-23.65 130.78-20.15 130.78-13.25L130.78-13.25Q130.78-6.65 127.98-2.95 125.19 0.75 120.23 0.75L120.23 0.75Q115.28 0.75 112.48-2.88 109.69-6.5 109.69-13.25L109.69-13.25Q109.69-19.95 112.48-23.55 115.28-27.15 120.23-27.15L120.23-27.15ZM120.23-22.5Q118.09-22.5 117.08-20.38 116.08-18.25 116.08-13.25L116.08-13.25Q116.08-8.2 117.08-6.08 118.09-3.95 120.23-3.95L120.23-3.95Q122.39-3.95 123.39-6.08 124.39-8.2 124.39-13.25L124.39-13.25Q124.39-18.3 123.39-20.4 122.39-22.5 120.23-22.5L120.23-22.5ZM140.93 0.75Q138.23 0.75 136.66-0.93 135.08-2.6 135.08-5.4L135.08-5.4 135.08-37.05 141.23-37.7 141.23-5.65Q141.23-5 141.53-4.6 141.83-4.2 142.43-4.2L142.43-4.2Q142.78-4.2 143.11-4.3 143.43-4.4 143.53-4.4L143.53-4.4 144.73-0.2Q143.03 0.75 140.93 0.75L140.93 0.75ZM147.78-26.45L153.93-26.45 153.93 0 147.78 0 147.78-26.45ZM150.83-39.65Q152.48-39.65 153.5-38.6 154.53-37.55 154.53-35.9L154.53-35.9Q154.53-34.3 153.5-33.25 152.48-32.2 150.83-32.2L150.83-32.2Q149.18-32.2 148.16-33.25 147.13-34.3 147.13-35.9L147.13-35.9Q147.13-37.55 148.16-38.6 149.18-39.65 150.83-39.65L150.83-39.65ZM169.03-27.15Q174.03-27.15 176.8-23.65 179.58-20.15 179.58-13.25L179.58-13.25Q179.58-6.65 176.78-2.95 173.98 0.75 169.03 0.75L169.03 0.75Q164.08 0.75 161.28-2.88 158.48-6.5 158.48-13.25L158.48-13.25Q158.48-19.95 161.28-23.55 164.08-27.15 169.03-27.15L169.03-27.15ZM169.03-22.5Q166.88-22.5 165.88-20.38 164.88-18.25 164.88-13.25L164.88-13.25Q164.88-8.2 165.88-6.08 166.88-3.95 169.03-3.95L169.03-3.95Q171.18-3.95 172.18-6.08 173.18-8.2 173.18-13.25L173.18-13.25Q173.18-18.3 172.18-20.4 171.18-22.5 169.03-22.5L169.03-22.5Z" opacity="1" transform="matrix(1,0,0,1,0,0)" fill="#000000" class="slogan-text-1" data-fill-palette-color="quaternary" id="text-1"></path></svg></g></svg></g></svg></g></svg></g></svg></g></svg></g><g><path d="M27.898 108.71l-26.865-9.216 3.044-8.875c0.143-0.416 0.263-0.757 0.362-1.023 0.099-0.266 0.259-0.651 0.481-1.154 0.223-0.503 0.438-0.922 0.647-1.258 0.202-0.338 0.475-0.727 0.818-1.167 0.344-0.44 0.688-0.797 1.033-1.072 0.351-0.273 0.778-0.537 1.28-0.794 0.503-0.257 1.022-0.425 1.557-0.506 0.533-0.074 1.146-0.079 1.838-0.013 0.699 0.068 1.432 0.234 2.2 0.497v0c1.107 0.38 2.057 0.849 2.852 1.407 0.797 0.552 1.425 1.129 1.884 1.73 0.452 0.598 0.784 1.288 0.995 2.068 0.214 0.774 0.332 1.512 0.357 2.213 0.017 0.699-0.05 1.491-0.204 2.375-0.153 0.884-0.327 1.661-0.521 2.331-0.188 0.672-0.431 1.443-0.729 2.313v0c-0.294 0.857-0.691 1.879-1.191 3.066v0l11.264 3.864zM4.975 97.254l9.921 3.403c0.519-1.18 0.964-2.311 1.335-3.391v0c0.213-0.62 0.384-1.141 0.514-1.561 0.13-0.42 0.26-0.944 0.389-1.572 0.132-0.634 0.203-1.174 0.213-1.621 0.004-0.449-0.051-0.947-0.163-1.493-0.106-0.544-0.293-1.012-0.559-1.404-0.266-0.392-0.643-0.771-1.132-1.139-0.489-0.368-1.085-0.672-1.788-0.914v0c-0.729-0.25-1.408-0.376-2.037-0.377-0.627-0.008-1.172 0.113-1.636 0.362-0.462 0.242-0.873 0.523-1.233 0.842-0.354 0.322-0.675 0.748-0.964 1.278-0.287 0.524-0.519 0.991-0.695 1.402-0.17 0.413-0.355 0.911-0.555 1.493v0z" fill="#ffffff" data-fill-palette-color="accent"></path><path d="M62.47 34.004l-8.063-9.227 2.559-2.236 18.689 21.386-2.558 2.236-8.658-9.906-11.441 9.998 8.657 9.907-2.559 2.236-18.689-21.386 2.559-2.236 8.063 9.226z" fill="#ffffff" data-fill-palette-color="accent"></path><path d="M175.235 4.914l-5.379-1.23-4.992 21.834 4.035 0.922c0.587 0.134 1.073 0.238 1.458 0.313 0.385 0.074 0.914 0.157 1.587 0.248 0.668 0.083 1.254 0.113 1.759 0.09 0.505-0.023 1.088-0.088 1.751-0.193 0.656-0.107 1.258-0.285 1.807-0.534 0.548-0.242 1.118-0.584 1.712-1.024 0.592-0.434 1.141-0.957 1.649-1.568v0c1.234-1.452 2.121-3.362 2.662-5.729v0c0.374-1.635 0.474-3.166 0.3-4.592-0.173-1.427-0.558-2.642-1.154-3.646-0.596-1.003-1.284-1.847-2.064-2.532-0.78-0.685-1.638-1.224-2.574-1.619v0c-0.544-0.228-1.397-0.475-2.557-0.74zM167.212 0l8.573 1.96c1.793 0.41 3.384 0.961 4.773 1.653 1.389 0.692 2.503 1.477 3.343 2.356 0.848 0.874 1.537 1.805 2.066 2.793 0.525 0.98 0.871 2.017 1.038 3.109 0.165 1.099 0.228 2.157 0.19 3.175-0.045 1.016-0.187 2.049-0.427 3.097v0c-0.277 1.213-0.632 2.356-1.065 3.429-0.439 1.072-1.016 2.137-1.73 3.195-0.712 1.051-1.519 1.956-2.42 2.714-0.908 0.757-1.996 1.375-3.265 1.855-1.276 0.485-2.653 0.743-4.13 0.772v0c-0.772 0.011-1.617-0.04-2.535-0.153-0.918-0.113-1.668-0.229-2.251-0.348-0.59-0.121-1.419-0.303-2.487-0.547v0l-6.002-1.373z" fill="#ffffff" data-fill-palette-color="accent"></path><path d="M237.107 45.305v0c0.701 0.656 1.253 1.329 1.653 2.019 0.401 0.699 0.662 1.351 0.783 1.954 0.126 0.608 0.126 1.252 0.001 1.931-0.131 0.674-0.309 1.271-0.536 1.79-0.226 0.529-0.559 1.107-0.997 1.735-0.448 0.627-0.854 1.155-1.217 1.583-0.359 0.423-0.799 0.914-1.321 1.473v0l-1.06 1.133-9.913-9.269c-0.494 0.528-0.863 1.165-1.106 1.91-0.253 0.745-0.362 1.536-0.33 2.372 0.023 0.836 0.261 1.721 0.714 2.653 0.452 0.932 1.106 1.798 1.96 2.597v0c1.013 0.947 2.273 1.797 3.781 2.55v0l-1.109 2.032c-2.065-0.931-3.853-2.103-5.364-3.516v0c-1.062-0.993-1.871-2.014-2.428-3.062-0.562-1.053-0.879-2.04-0.953-2.961-0.083-0.921 0.01-1.847 0.28-2.779 0.27-0.932 0.639-1.768 1.108-2.506 0.463-0.743 1.023-1.465 1.678-2.166v0c1.012-1.082 2.066-1.947 3.164-2.597 1.107-0.65 2.167-1.07 3.18-1.262 1.018-0.187 2.021-0.211 3.012-0.072 0.986 0.144 1.897 0.427 2.734 0.848 0.832 0.427 1.594 0.963 2.286 1.61zM234.655 46.902v0c-0.854-0.799-1.81-1.253-2.866-1.361-1.061-0.103-2.062 0.062-3.004 0.495-0.933 0.433-1.778 1.055-2.536 1.865v0l7.535 7.046c2.947-3.151 3.237-5.833 0.871-8.045z" fill="#ffffff" data-fill-palette-color="accent"></path><path d="M271.839 103.183l1.147 3.199-20.932 0.14-1.148-3.198 16.252-13.182 1.217 3.389-13.797 10.383z" fill="#ffffff" data-fill-palette-color="accent"></path><path d="M9.219 186.135l26.865-9.216 3.044 8.875c0.143 0.416 0.257 0.759 0.343 1.03 0.086 0.271 0.195 0.673 0.328 1.206 0.133 0.533 0.22 0.997 0.262 1.39 0.048 0.391 0.072 0.865 0.07 1.424-0.002 0.558-0.054 1.052-0.157 1.48-0.11 0.431-0.284 0.902-0.523 1.413-0.239 0.511-0.545 0.963-0.919 1.355-0.375 0.386-0.856 0.766-1.443 1.138-0.593 0.375-1.274 0.694-2.041 0.958v0c-1.107 0.38-2.145 0.593-3.116 0.64-0.968 0.053-1.818-0.016-2.549-0.209-0.725-0.195-1.41-0.535-2.055-1.021-0.644-0.48-1.19-0.989-1.64-1.529-0.443-0.541-0.876-1.208-1.297-2-0.422-0.792-0.762-1.512-1.02-2.159-0.264-0.646-0.546-1.403-0.844-2.274v0c-0.294-0.857-0.608-1.908-0.942-3.151v0l-11.264 3.864zM34.346 181.107l-9.921 3.403c0.315 1.25 0.657 2.416 1.029 3.498v0c0.213 0.62 0.397 1.136 0.552 1.547 0.155 0.411 0.375 0.905 0.658 1.48 0.285 0.581 0.561 1.052 0.827 1.41 0.273 0.357 0.621 0.716 1.045 1.079 0.418 0.364 0.852 0.619 1.303 0.765 0.45 0.146 0.981 0.214 1.593 0.204 0.612-0.01 1.269-0.135 1.972-0.376v0c0.729-0.25 1.342-0.568 1.84-0.953 0.499-0.379 0.856-0.808 1.069-1.289 0.216-0.474 0.368-0.948 0.456-1.422 0.081-0.471 0.074-1.005-0.023-1.601-0.095-0.589-0.199-1.101-0.312-1.533-0.119-0.431-0.279-0.937-0.478-1.52v0z" fill="#ffffff" data-fill-palette-color="accent"></path><path d="M70.728 244.984l8.063-9.227 2.559 2.236-18.689 21.386-2.559-2.236 8.657-9.906-11.441-9.999-8.657 9.907-2.559-2.237 18.689-21.386 2.559 2.236-8.063 9.227z" fill="#ffffff" data-fill-palette-color="accent"></path><path d="M168.315 253.253l-5.379 1.229 4.991 21.834 4.034-0.922c0.587-0.134 1.07-0.251 1.45-0.353 0.379-0.101 0.892-0.256 1.537-0.465 0.638-0.215 1.179-0.443 1.623-0.684 0.445-0.24 0.942-0.552 1.493-0.934 0.544-0.381 1.01-0.803 1.396-1.266 0.388-0.456 0.754-1.012 1.097-1.666 0.344-0.648 0.612-1.357 0.803-2.129v0c0.48-1.844 0.45-3.949-0.091-6.316v0c-0.374-1.635-0.949-3.057-1.724-4.267-0.776-1.21-1.65-2.137-2.624-2.782-0.973-0.645-1.959-1.106-2.959-1.384-1-0.278-2.007-0.391-3.022-0.339v0c-0.59 0.031-1.464 0.179-2.625 0.444zM158.954 252.313l8.573-1.96c1.793-0.41 3.465-0.605 5.017-0.585 1.551 0.02 2.896 0.243 4.034 0.669 1.143 0.418 2.168 0.958 3.075 1.618 0.899 0.655 1.661 1.438 2.286 2.349 0.626 0.918 1.143 1.844 1.55 2.778 0.401 0.935 0.721 1.927 0.961 2.974v0c0.277 1.213 0.454 2.397 0.531 3.552 0.07 1.156 0.014 2.366-0.169 3.629-0.185 1.256-0.518 2.421-1.001 3.496-0.489 1.076-1.201 2.106-2.135 3.089-0.939 0.992-2.067 1.822-3.384 2.49v0c-0.691 0.345-1.474 0.667-2.35 0.964-0.875 0.297-1.602 0.519-2.179 0.665-0.584 0.147-1.41 0.343-2.477 0.587v0l-6.003 1.372z" fill="#ffffff" data-fill-palette-color="accent"></path><path d="M223.103 228.157v0c0.701-0.656 1.41-1.161 2.125-1.515 0.725-0.354 1.392-0.571 2.003-0.65 0.615-0.085 1.257-0.042 1.926 0.129 0.664 0.175 1.247 0.393 1.75 0.654 0.513 0.261 1.067 0.631 1.664 1.111 0.596 0.489 1.096 0.929 1.499 1.32 0.399 0.387 0.859 0.859 1.38 1.417v0l1.06 1.134-9.913 9.27c0.494 0.528 1.105 0.939 1.832 1.231 0.727 0.302 1.508 0.464 2.345 0.488 0.836 0.033 1.734-0.145 2.695-0.535 0.96-0.389 1.868-0.983 2.722-1.781v0c1.013-0.947 1.945-2.148 2.798-3.602v0l1.953 1.242c-1.067 1.998-2.356 3.703-3.867 5.116v0c-1.062 0.993-2.134 1.732-3.218 2.218-1.088 0.49-2.094 0.741-3.018 0.753-0.924 0.022-1.842-0.134-2.755-0.466-0.912-0.332-1.721-0.756-2.426-1.273-0.71-0.512-1.393-1.118-2.048-1.819v0c-1.012-1.082-1.804-2.192-2.379-3.331-0.574-1.148-0.923-2.234-1.046-3.257-0.119-1.028-0.075-2.031 0.129-3.01 0.21-0.974 0.553-1.864 1.03-2.671 0.481-0.802 1.068-1.526 1.759-2.173zM224.532 230.709v0c-0.854 0.799-1.371 1.722-1.55 2.769-0.174 1.052-0.076 2.062 0.293 3.031 0.37 0.96 0.933 1.845 1.691 2.655v0l7.535-7.046c-2.947-3.151-5.603-3.621-7.969-1.409z" fill="#ffffff" data-fill-palette-color="accent"></path><path d="M253.248 178.582l1.148-3.199 16.245 13.202-1.148 3.198-20.925-0.16 1.216-3.389 17.251 0.759z" fill="#ffffff" data-fill-palette-color="accent"></path><path d="M1.648 144.218c0-5.992 4.857-10.849 10.85-10.849 5.992 0 10.849 4.857 10.849 10.849 0 5.992-4.857 10.849-10.849 10.85-5.992 0-10.849-4.857-10.85-10.85z" fill="#ffffff" data-fill-palette-color="accent"></path><path d="M257.269 144.218c0-5.992 4.857-10.849 10.849-10.849 5.992 0 10.849 4.857 10.849 10.849 0 5.992-4.857 10.849-10.849 10.85-5.992 0-10.849-4.857-10.849-10.85z" fill="#ffffff" data-fill-palette-color="accent"></path></g></svg></g><defs></defs></svg><rect width="280" height="280" fill="none" stroke="none" visibility="hidden"></rect></g></svg></g></svg>